<defs>
<font horiz-adv-x="974" ><font-face
    font-family="muli-light"
    units-per-em="2048"
    panose-1="2 0 5 3 4 0 0 2 0 4"
    ascent="1979"
    descent="-541"
    alphabetic="0" />
<missing-glyph horiz-adv-x="599" />
<glyph unicode="&#xd;" glyph-name="uni000D" horiz-adv-x="0" />
<glyph unicode=" " glyph-name="space" horiz-adv-x="599" />
<glyph unicode="!" glyph-name="exclam" horiz-adv-x="737" d="M287 152H465V-23H277L287 152ZM450 385H318V1467H450V385Z" />
<glyph unicode="&quot;" glyph-name="quotedbl" horiz-adv-x="720" d="M471 1026L437 1467H575V1026H471ZM173 1026L139 1467H275V1026H173Z" />
<glyph unicode="#" glyph-name="numbersign" horiz-adv-x="1242" d="M401 917H128L137 1010H419L500 1436H599L517 1010H840L922 1436H1018L938 1010H1191L1181 917H922L862 595H1126L1112 504H843L758 63H659L745 504H421L334 63H238L324 504H60L67 595H342L401
917ZM824 917H501L437 595H763L824 917Z" />
<glyph unicode="$" glyph-name="dollar" horiz-adv-x="1244" d="M569 -216L575 -23H562Q433 -23 323 25T137 170L191 250Q240 195 289 164T388 116T487 95Q533 91 579 91L600 679L561 693Q483 722 409 755T277 835T183 946T147 1103Q147 1197 191 1268T308 1387T473
1459Q549 1478 628 1482L634 1655H698L692 1482Q727 1481 763 1476Q814 1470 864 1455T960 1415T1046 1351L997 1258Q928 1318 839 1343Q764 1364 688 1367L669 787Q685 781 701 775Q779 744 853 709T986 626T1080 512T1116 356Q1116 286 1094 231T1031 133T938
62T823 13T694 -14Q668 -18 641 -20L635 -216H569ZM527 1354Q460 1340 407 1309T320 1230T286 1115Q286 1044 321 994T415 906T548 836L604 813L624 1367Q575 1364 527 1354ZM742 108Q814 125 865 158T946 240T975 354Q975 428 940 479T846 569T713 636Q689 645
664 655L645 93Q696 97 742 108Z" />
<glyph unicode="%" glyph-name="percent" horiz-adv-x="1985" d="M1487 644Q1425 644 1380 619T1304 553T1260 457T1245 345Q1245 285 1259 232T1303 139T1379 76T1489 52Q1551 52 1596 77T1672 144T1716 240T1731 352Q1731 412 1717 465T1672 558T1596 621T1487
644ZM1494 726Q1575 726 1637 698T1742 619T1807 501T1829 353Q1829 274 1805 205T1735 84T1626 3T1483 -27Q1402 -27 1340 1T1234 79T1168 197T1145 344Q1145 424 1169 493T1239 615T1349 696T1494 726ZM529 1463Q611 1463 674 1435T780 1356T845 1238T868 1090Q868
1011 844 942T774 822T664 741T522 711Q440 711 377 740T271 819T206 937T184 1083Q184 1164 208 1233T277 1354T386 1434T529 1463ZM1394 1452H1499L583 -5H478L1394 1452ZM526 1385Q463 1385 417 1360T341 1293T296 1197T281 1085Q281 1025 296 972T341 878T418
814T529 790Q591 790 636 815T710 881T754 976T768 1088Q768 1148 754 1201T711 1296T635 1361T526 1385Z" />
<glyph unicode="&amp;" glyph-name="ampersand" horiz-adv-x="1647" d="M132 395Q132 481 167 550T258 675T386 777T531 861Q493 899 456 936T388 1013T340 1101T321 1207Q321 1277 348 1329T424 1417T536 1471T673 1489Q740 1489 805 1473T921 1422T1003 1336T1035
1213Q1035 1150 1008 1096T936 996T831 910T707 838L1170 372Q1211 429 1244 497T1301 641T1337 794T1350 946Q1350 972 1349 986T1347 1009T1345 1022T1343 1032H1473Q1476 994 1476 956Q1476 869 1462 780T1420 604T1352 436T1259 286Q1307 235 1347 198T1428
133T1512 89T1611 61L1514 -9Q1471 -3 1436 12T1364 54T1288 117T1196 202Q1149 154 1094 112T974 40T833 -9T667 -27Q552 -27 454 1T285 84T173 216T132 395ZM1109 282Q1110 282 1089 303T1033 360T952 440T859 533L608 784Q544 753 483 716T373 633T296 530T267
403Q267 335 296 276T379 174T506 107T670 82Q745 82 808 97T924 140T1022 203T1109 282ZM629 909Q680 936 730 966T819 1033T883 1111T908 1202Q908 1251 888 1287T835 1345T761 1379T679 1390Q633 1390 591 1378T518 1343T468 1285T449 1204Q449 1160 462 1122T500
1048T557 978T629 909Z" />
<glyph unicode="&apos;" glyph-name="quotesingle" horiz-adv-x="554" d="M238 1026L204 1467H341V1026H238Z" />
<glyph unicode="(" glyph-name="parenleft" horiz-adv-x="628" d="M455 -268Q398 -181 348 -81T260 129T200 354T178 589Q178 710 197 825T253 1049T342 1263T458 1467H553Q430 1268 364 1051T297 598Q297 489 314 375T365 148T446 -70T554 -268H455Z" />
<glyph unicode=")" glyph-name="parenright" horiz-adv-x="628" d="M189 -268H93Q149 -178 196 -77T277 133T330 361T349 604Q349 710 332 821T281 1044T200 1262T89 1467H190Q248 1375 299 1273T388 1062T448 838T471 604Q471 481 451 366T393 142T304 -69T189 -268Z" />
<glyph unicode="*" glyph-name="asterisk" horiz-adv-x="1065" d="M546 1065L374 782L287 836L494 1086L198 1170L216 1271L517 1139L492 1467H576V1137L826 1274L875 1183L599 1089L808 826L718 774L546 1065Z" />
<glyph unicode="+" glyph-name="plus" horiz-adv-x="1458" d="M685 608V1047H791V608H1256V504H788V65H681V504H218V608H685Z" />
<glyph unicode="," glyph-name="comma" horiz-adv-x="540" d="M213 176H353L198 -265H107L213 176Z" />
<glyph unicode="-" glyph-name="hyphen" horiz-adv-x="728" d="M100 508V610H645V508H100Z" />
<glyph unicode="." glyph-name="period" horiz-adv-x="540" d="M361 -11H188V168H361V-11Z" />
<glyph unicode="/" glyph-name="slash" horiz-adv-x="717" d="M-22 -224L626 1467H747L94 -224H-22Z" />
<glyph unicode="0" glyph-name="zero" horiz-adv-x="1190" d="M612 1469Q749 1469 843 1412T995 1253T1079 1011T1105 703Q1105 539 1072 406T975 177T815 29T594 -23Q464 -23 372 32T221 187T135 422T107 721Q107 894 139 1032T235 1268T393 1417T612 1469ZM602
1359Q511 1359 444 1313T331 1185T264 987T241 733Q241 657 247 579T269 429T311 295T378 186T475 112T606 85Q697 85 765 130T877 258T943 453T965 703Q965 778 959 856T938 1007T897 1144T831 1256T734 1331T602 1359Z" />
<glyph unicode="1" glyph-name="one" horiz-adv-x="1190" d="M301 1285Q374 1309 444 1345T581 1427L711 1447V112H939V0H359V117H589L588 1310Q516 1265 443 1229T299 1166L301 1285Z" />
<glyph unicode="2" glyph-name="two" horiz-adv-x="1190" d="M118 0L119 131Q203 211 293 293T471 457T637 621T775 782T869 939T904 1088Q904 1147 882 1196T817 1280T716 1334T583 1354Q520 1354 464 1339T361 1297T278 1229T220 1140L144 1213Q167 1273 210
1319T313 1398T446 1447T600 1464Q693 1464 773 1439T912 1365T1004 1248T1038 1093Q1038 1011 1010 933T931 776T808 620T650 460T465 293T261 114H1038V0H118Z" />
<glyph unicode="3" glyph-name="three" horiz-adv-x="1190" d="M160 1324Q193 1355 237 1381T332 1425T442 1454T562 1465Q649 1465 730 1441T875 1371T976 1256T1014 1097Q1014 1028 991 969T922 865T811 793T659 758V754Q745 746 817 718T942 643T1024 532T1053
388Q1053 293 1013 217T903 87T741 6T546 -23Q428 -23 328 10T156 113L213 202Q276 145 359 115T540 85Q619 85 688 105T808 165T889 260T919 389Q919 473 888 531T798 626T655 680T467 697Q453 697 440 696T415 695L416 808Q420 807 428 807H453Q546 807 623 821T756
869T842 956T873 1088Q873 1157 850 1207T784 1289T682 1337T553 1353Q447 1353 361 1320T213 1232L160 1324Z" />
<glyph unicode="4" glyph-name="four" horiz-adv-x="1189" d="M769 0V363H41V469L721 1436H897V464H1119V363H893V0H769ZM765 464V1348L657 1180L151 464H765Z" />
<glyph unicode="5" glyph-name="five" horiz-adv-x="1190" d="M254 214Q317 148 393 117T557 85Q648 85 719 114T839 192T913 309T939 451Q939 519 917 580T853 686T748 759T604 786Q516 786 447 759T339 683Q325 683 302 683T257 682H203V1441H996V1327H345L330
811Q356 834 389 851T458 879T534 896T612 902Q719 902 804 868T949 774T1040 630T1072 448Q1072 347 1037 261T935 112T773 13T557 -23Q458 -23 368 9T206 110L254 214Z" />
<glyph unicode="6" glyph-name="six" horiz-adv-x="1190" d="M966 1273Q914 1315 846 1337T690 1359Q612 1359 549 1333T435 1261T347 1153T286 1017T249 862T237 699Q237 670 237 657T239 638T240 632T241 629Q266 700 307 753T403 841T523 893T663 911Q764 911
846 879T985 788T1074 644T1105 455Q1105 353 1071 266T973 114T821 14T621 -23Q493 -23 398 28T239 173T144 396T112 682Q112 843 149 986T260 1236T441 1406T691 1469Q791 1469 870 1439T1009 1352L966 1273ZM631 806Q560 806 494 784T377 721T295 627T264 508Q264
436 281 361T341 224T454 124T630 85Q708 85 770 112T877 188T944 303T968 446Q968 522 948 588T887 702T783 778T631 806Z" />
<glyph unicode="7" glyph-name="seven" horiz-adv-x="1189" d="M1071 1436V1363L470 0H327L930 1322H113V1436H1071Z" />
<glyph unicode="8" glyph-name="eight" horiz-adv-x="1190" d="M113 361Q113 434 137 497T208 610T322 697T476 755V758Q399 774 339 806T236 883T172 985T150 1109Q150 1193 188 1260T290 1373T439 1444T616 1469Q704 1469 784 1446T925 1377T1022 1267T1059
1117Q1059 1053 1036 997T970 895T867 815T733 759V756Q918 708 1007 613T1097 369Q1097 275 1057 202T947 79T784 3T586 -23Q491 -23 406 2T255 76T152 196T113 361ZM245 378Q245 306 272 251T348 160T462 104T604 85Q680 85 744 105T856 162T931 253T958 374Q958
448 933 503T860 597T747 660T598 698Q520 684 455 658T344 591T271 498T245 378ZM277 1109Q277 983 360 912T604 814Q765 836 848 907T931 1098Q931 1166 905 1216T834 1299T730 1348T606 1364Q544 1364 485 1348T380 1299T306 1219T277 1109Z" />
<glyph unicode="9" glyph-name="nine" horiz-adv-x="1190" d="M243 184Q289 133 359 104T526 75Q638 75 722 129T862 276T947 488T975 739Q975 756 975 773T973 808Q919 683 812 618T553 552Q451 552 369 585T228 678T138 820T106 1000Q106 1099 140 1185T238
1334T391 1433T592 1469Q713 1469 807 1424T966 1289T1064 1069T1098 768Q1098 594 1060 449T949 198T767 35T520 -23Q414 -23 335 9T206 105L243 184ZM582 661Q651 661 717 683T836 745T919 837T951 953Q951 1025 931 1097T866 1228T751 1322T582 1359Q505 1359
442 1333T333 1259T263 1147T238 1007Q238 933 258 870T321 761T428 688T582 661Z" />
<glyph unicode=":" glyph-name="colon" horiz-adv-x="540" d="M331 769H159V948H332L331 769ZM361 -11H188V168H361V-11Z" />
<glyph unicode=";" glyph-name="semicolon" horiz-adv-x="540" d="M213 176H353L198 -265H107L213 176ZM333 769H159V945H333V769Z" />
<glyph unicode="&lt;" glyph-name="less" horiz-adv-x="1458" d="M398 552L1230 178V64L237 514L242 589L1234 1055V939L398 552Z" />
<glyph unicode="=" glyph-name="equal" horiz-adv-x="1458" d="M1254 398V292H218V398H1254ZM1254 821V714H216V821H1254Z" />
<glyph unicode="&gt;" glyph-name="greater" horiz-adv-x="1458" d="M1083 552L241 951V1066L1236 588L1230 517L237 77V187L1083 552Z" />
<glyph unicode="?" glyph-name="question" horiz-adv-x="1032" d="M390 380L376 557Q375 562 375 571Q375 625 404 670T478 758T574 843T670 931T743 1029T773 1146Q773 1210 750 1255T688 1330T601 1372T500 1386Q453 1386 413 1380T336 1363T268 1342T208 1322V1428Q272
1463 341 1478T473 1494Q562 1494 639 1474T774 1411T865 1305T898 1155Q898 1059 858 988T756 866Q739 852 728 843T703 821Q640 762 599 725T533 657T498 594T488 514Q488 485 491 449L496 380H390ZM550 -11H377V168H550V-11Z" />
<glyph unicode="@" glyph-name="at" horiz-adv-x="1895" d="M1240 975H1242L1275 1114L1393 1123L1326 869Q1303 783 1285 715T1255 593T1236 502T1229 436Q1229 384 1252 355T1342 325Q1408 325 1468 365T1574 473T1647 627T1675 807Q1675 938 1625 1048T1483
1238T1264 1362T985 1407Q880 1407 785 1381T608 1308T460 1194T347 1047T275 874T250 682Q250 581 274 490T343 320T454 178T601 69T782 0T991 -25Q1151 -25 1288 20T1526 152L1576 106Q1528 56 1463 16T1322 -52T1159 -96T983 -112Q801 -112 647 -52T380 114T205
366T142 683Q142 797 172 901T257 1095T389 1258T560 1383T764 1463T992 1492Q1157 1492 1301 1441T1552 1297T1720 1079T1782 803Q1782 683 1742 580T1635 399T1485 278T1315 234Q1228 234 1172 287T1107 434Q1081 392 1049 361T980 308T904 277T825 266Q768 266
714 288T617 353T549 461T523 612Q523 681 541 747T592 871T670 979T769 1065T881 1121T1001 1141Q1047 1141 1087 1130T1158 1096T1211 1044T1240 975ZM636 586Q636 536 650 495T691 423T756 377T845 360Q918 360 981 401T1091 508T1164 660T1191 833Q1191 879
1181 918T1147 985T1087 1028T996 1044Q918 1044 852 1002T738 893T663 745T636 586Z" />
<glyph unicode="A" glyph-name="A" horiz-adv-x="1425" d="M177 0H38L647 1456H798L1401 0H1260L1081 426H347L177 0ZM382 520H1047L801 1168L722 1389L645 1168L382 520Z" />
<glyph unicode="B" glyph-name="B" horiz-adv-x="1352" d="M224 0V1456H501Q564 1456 636 1455T780 1444T917 1414T1033 1355T1113 1259T1143 1115Q1143 1046 1118 988T1048 884T944 807T815 763Q903 760 976 734T1102 661T1183 548T1212 397Q1212 318 1182 246T1093
120T946 33T739 0H224ZM354 699V114H670Q864 114 970 183T1077 398Q1077 484 1046 542T956 635T809 684T607 699H354ZM356 812H579Q658 812 735 824T873 867T971 951T1008 1085Q1008 1166 976 1216T887 1295T755 1332T591 1342H356V812Z" />
<glyph unicode="C" glyph-name="C" horiz-adv-x="1399" d="M1204 1266Q1072 1368 848 1368Q699 1368 590 1312T409 1163T302 952T267 711Q267 587 299 475T400 278T574 142T826 91Q959 91 1067 121T1247 215L1289 118Q1203 49 1078 13T794 -23Q632 -23 508 34T299
191T172 424T128 709Q128 865 176 1005T315 1251T536 1420T832 1483Q964 1483 1064 1450T1252 1341L1204 1266Z" />
<glyph unicode="D" glyph-name="D" horiz-adv-x="1546" d="M217 1456H516Q653 1456 774 1444T997 1400T1180 1316T1317 1182T1404 988T1434 725Q1434 560 1379 426T1218 198T960 52T616 0H211L217 1456ZM345 114H635Q804 114 928 159T1134 284T1255 475T1295 718Q1295
892 1246 1011T1101 1203T863 1309T534 1342H345V114Z" />
<glyph unicode="E" glyph-name="E" horiz-adv-x="1218" d="M1096 114V0H226V1456H1068V1342H358V804H1028V691H356V114H1096Z" />
<glyph unicode="F" glyph-name="F" horiz-adv-x="1137" d="M350 0H218V1456H1036V1342H350V799H1000V686H350V0Z" />
<glyph unicode="G" glyph-name="G" horiz-adv-x="1530" d="M857 624V738H1356L1352 75Q1240 21 1115 -1T861 -23Q683 -23 548 29T321 176T183 403T136 698Q136 860 185 1002T326 1252T553 1421T858 1483Q939 1483 1013 1469T1149 1427T1256 1357T1322 1259L1266
1189Q1241 1235 1200 1268T1104 1324T984 1357T847 1368Q705 1368 597 1313T417 1167T307 958T270 713Q270 574 307 460T421 263T611 136T878 91Q975 91 1063 106T1227 157L1229 624H857Z" />
<glyph unicode="H" glyph-name="H" horiz-adv-x="1555" d="M351 0H220V1456H355V806H1223V1456H1353V0H1219V693H351V0Z" />
<glyph unicode="I" glyph-name="I" horiz-adv-x="591" d="M370 0H235V1456H370V0Z" />
<glyph unicode="J" glyph-name="J" horiz-adv-x="939" d="M168 126Q226 91 332 91Q408 91 461 118T548 197T597 320T614 482L620 1456H748L744 493Q743 361 715 264T633 103T502 8T325 -23Q268 -23 224 -9T145 31L168 126Z" />
<glyph unicode="K" glyph-name="K" horiz-adv-x="1294" d="M362 769L1058 1456H1219L533 758L1271 0H1088L360 759V0H228V1456H362V769Z" />
<glyph unicode="L" glyph-name="L" horiz-adv-x="1120" d="M1068 0H224V1456H356V114H1068V0Z" />
<glyph unicode="M" glyph-name="M" horiz-adv-x="2002" d="M346 0H216V1456H424L900 396L1012 135L1123 395L1608 1456H1808V0H1676V940V1390L1583 1149L1057 0H962L455 1124L346 1380V937V0Z" />
<glyph unicode="N" glyph-name="N" horiz-adv-x="1594" d="M343 1322V0H212V1456H389L1145 323L1279 102V442V1456H1401V0H1221L462 1132L343 1322Z" />
<glyph unicode="O" glyph-name="O" horiz-adv-x="1663" d="M1551 730Q1551 565 1503 427T1362 188T1138 33T838 -23Q674 -23 544 30T322 181T183 417T134 727Q134 892 182 1030T323 1269T548 1426T850 1483Q1012 1483 1142 1430T1363 1278T1502 1040T1551 730ZM271
725Q271 592 307 477T416 276T594 141T839 91Q980 91 1086 140T1264 275T1370 479T1406 735Q1406 868 1371 984T1266 1185T1089 1320T841 1369Q701 1369 595 1316T416 1175T308 969T271 725Z" />
<glyph unicode="P" glyph-name="P" horiz-adv-x="1274" d="M350 0H224V1456H552Q636 1456 716 1449T869 1423T1001 1373T1104 1295T1172 1182T1197 1029Q1197 916 1149 836T1019 704T829 628T602 603H356L350 0ZM356 717H647Q737 717 813 735T943 791T1029 887T1060
1025Q1060 1120 1027 1181T932 1278T785 1328T596 1342H356V717Z" />
<glyph unicode="Q" glyph-name="Q" horiz-adv-x="1664" d="M270 725Q270 593 306 478T414 276T592 141T839 91Q980 91 1086 140T1264 275T1370 479T1406 735Q1406 868 1371 984T1265 1185T1088 1319T841 1368Q748 1368 670 1344T528 1277T416 1174T336 1043T287
891T270 725ZM1605 -188Q1577 -193 1537 -195T1459 -198Q1348 -198 1269 -192T1133 -175T1037 -147T967 -110T909 -67T849 -18Q690 -18 559 35T335 187T190 428T139 747Q139 909 188 1044T330 1276T554 1428T851 1483Q1013 1483 1142 1429T1362 1277T1500 1043T1549
741Q1549 601 1513 473T1406 244T1228 76T981 -10Q1018 -36 1079 -50T1209 -71T1344 -79T1457 -81Q1502 -81 1540 -79T1605 -72V-188Z" />
<glyph unicode="R" glyph-name="R" horiz-adv-x="1377" d="M1139 0L987 416Q960 489 933 537T869 615T781 656T655 668H357V0H227V1456H569Q628 1456 697 1454T837 1441T972 1408T1087 1344T1168 1239T1199 1083Q1199 1010 1174 950T1103 844T993 768T851 724Q849
718 849 716Q849 715 849 715T850 713Q922 699 966 665T1046 570T1114 421T1198 209L1278 0H1139ZM361 783H654Q727 783 799 795T930 840T1024 926T1061 1065Q1061 1149 1031 1202T948 1287T821 1330T662 1342H361V783Z" />
<glyph unicode="S" glyph-name="S" horiz-adv-x="1244" d="M207 250Q256 195 305 164T404 116T503 96T600 91Q686 91 758 108T881 158T962 240T991 354Q991 428 956 479T862 569T729 636T577 693T425 755T293 835T199 946T163 1103Q163 1197 207 1268T324 1387T489
1459T680 1483Q728 1483 779 1477T880 1455T976 1415T1062 1351L1013 1258Q944 1318 856 1343T678 1368Q610 1368 543 1354T423 1309T336 1230T302 1115Q302 1044 337 994T431 906T564 837T717 775T869 709T1002 626T1096 512T1132 356Q1132 286 1110 231T1047
133T954 62T839 13T711 -14T578 -23Q449 -23 339 25T153 170L207 250Z" />
<glyph unicode="T" glyph-name="T" horiz-adv-x="1174" d="M530 0V1342H53V1456H1141V1342H665V0H530Z" />
<glyph unicode="U" glyph-name="U" horiz-adv-x="1532" d="M1212 1456H1338L1333 548Q1332 414 1297 308T1190 129T1013 16T764 -23Q627 -23 527 12T360 114T255 277T209 496Q208 501 208 504T208 513V532L214 1456H339L336 543Q336 437 361 354T440 212T577 122T774
91Q880 91 961 116T1096 194T1177 331T1206 533L1212 1456Z" />
<glyph unicode="V" glyph-name="V" horiz-adv-x="1336" d="M679 100L751 301L1184 1456H1320L750 0H595L36 1456H178L607 300L679 100Z" />
<glyph unicode="W" glyph-name="W" horiz-adv-x="2103" d="M1584 67L1642 316L1961 1456H2088L1663 0H1489L1071 1325L645 0H463L39 1456H181L492 337L564 58L633 318L997 1456H1147L1504 333L1584 67Z" />
<glyph unicode="X" glyph-name="X" horiz-adv-x="1304" d="M582 741L83 1456H249L668 820L766 953L1115 1456H1261L748 742L1269 0H1106L663 664L199 0H45L582 741Z" />
<glyph unicode="Y" glyph-name="Y" horiz-adv-x="1266" d="M707 588V0H574V582L43 1456H187L643 691L1106 1456H1244L707 588Z" />
<glyph unicode="Z" glyph-name="Z" horiz-adv-x="1222" d="M1143 0H76V70L983 1342H113V1456H1157V1390L245 114H1143V0Z" />
<glyph unicode="[" glyph-name="bracketleft" horiz-adv-x="628" d="M537 -268H220V1467H536V1379H336V-181H537V-268Z" />
<glyph unicode="\" glyph-name="backslash" horiz-adv-x="706" d="M654 -122L-42 1467H76L771 -122H654Z" />
<glyph unicode="]" glyph-name="bracketright" horiz-adv-x="628" d="M128 1467H428V-268H111V-181H309V1379H110L128 1467Z" />
<glyph unicode="^" glyph-name="asciicircum" horiz-adv-x="1457" d="M217 569L696 1448H766L1254 569H1146L738 1318H731L323 569H217Z" />
<glyph unicode="_" glyph-name="underscore" horiz-adv-x="998" d="M1004 -282H13V-189H1004V-282Z" />
<glyph unicode="`" glyph-name="grave" horiz-adv-x="593" d="M48 1508H206L435 1216H353L48 1508Z" />
<glyph unicode="a" glyph-name="a" horiz-adv-x="1244" d="M596 1051Q668 1051 725 1036T830 992T917 922T993 829L998 1026H1118V782V0H992L994 219Q980 178 945 136T858 58T739 0T593 -23Q466 -23 375 26T224 154T137 330T109 524Q109 623 139 718T230 887T382
1006T596 1051ZM997 525Q991 606 970 682T903 819T786 915T605 951Q504 951 433 912T315 811T248 671T227 518Q227 442 243 364T301 221T419 116T614 75Q694 75 764 101T885 180T967 313T997 500V525Z" />
<glyph unicode="b" glyph-name="b" horiz-adv-x="1239" d="M293 0H176V1508H300V816Q330 875 373 919T468 992T581 1036T705 1051Q821 1051 903 1009T1039 894T1117 727T1142 526Q1142 413 1113 314T1027 139T882 21T680 -23Q430 -23 299 193L293 0ZM664 951Q561
951 491 913T378 811T317 664T298 490Q298 401 321 325T390 194T503 107T659 75Q758 75 826 115T937 221T998 367T1017 531Q1017 618 996 694T932 828T822 918T664 951Z" />
<glyph unicode="c" glyph-name="c" horiz-adv-x="1046" d="M903 848Q861 899 790 925T631 951Q539 951 467 916T345 821T268 681T241 509Q241 418 263 339T333 201T454 109T630 75Q816 75 932 175L962 78Q896 24 808 1T614 -23Q489 -23 395 18T238 130T144 296T112
500Q112 613 146 713T244 888T403 1007T620 1051Q737 1051 821 1018T956 924L903 848Z" />
<glyph unicode="d" glyph-name="d" horiz-adv-x="1240" d="M957 1508H1081V247Q1081 181 1081 124T1085 0H962L956 206Q888 86 790 32T565 -23Q448 -23 363 18T222 131T139 298T112 504Q112 613 141 712T228 886T374 1006T577 1051Q710 1051 807 995T957 821V1508ZM594
75Q686 75 754 109T868 205T935 350T957 533Q957 629 932 706T861 837T750 921T602 951Q507 951 439 915T327 818T262 677T241 507Q241 422 259 344T320 206T429 111T594 75Z" />
<glyph unicode="e" glyph-name="e" horiz-adv-x="1173" d="M268 593H955V595V588Q952 669 933 735T874 850T775 924T629 951Q546 951 482 923T373 845T302 731T268 593ZM1001 202L1037 106Q962 37 863 7T638 -23Q519 -23 426 16T268 126T169 294T135 508Q135 619
169 718T267 891T423 1008T633 1051Q749 1051 834 1012T975 904T1058 737T1085 523Q1085 515 1085 506T1084 491H266V472Q266 383 292 310T369 185T490 104T651 75Q763 75 852 108T1001 202Z" />
<glyph unicode="f" glyph-name="f" horiz-adv-x="702" d="M399 0H275V944H68V1026H275V1190Q273 1271 289 1334T341 1442T430 1510T561 1533Q583 1533 599 1532T628 1528T652 1523T679 1515L678 1419Q666 1423 645 1426T587 1429Q527 1429 489 1414T430 1367T404
1291T399 1187V1026H654V944H399V0Z" />
<glyph unicode="g" glyph-name="g" horiz-adv-x="1241" d="M962 1026H1086V782V135Q1086 60 1077 -7T1049 -138T993 -256T899 -351T757 -415T557 -438Q460 -438 371 -420T206 -362L218 -246Q291 -288 375 -308T548 -329Q743 -329 847 -242T957 33L962 251Q905
124 802 62T569 0Q461 0 376 37T232 140T142 301T111 509Q111 620 140 718T229 891T377 1008T585 1051Q649 1051 704 1035T805 989T890 918T959 826L962 1026ZM959 551Q959 633 935 706T864 833T752 919T604 951Q514 951 446 916T333 820T264 681T241 516Q241 421
259 345T320 216T432 133T602 104Q669 104 721 121T813 169T880 242T925 333T951 438T959 551Z" />
<glyph unicode="h" glyph-name="h" horiz-adv-x="1217" d="M313 1508V825Q379 943 471 997T695 1051Q795 1051 862 1020T970 936T1030 818T1055 683L1057 639V0H933V530Q933 567 932 611T931 657Q924 799 855 875T647 951Q564 951 502 923T397 846T334 731T313
588V0H189V1508H313Z" />
<glyph unicode="i" glyph-name="i" horiz-adv-x="503" d="M315 1478V1354H200V1478H315ZM193 1026H317V0H193V1026Z" />
<glyph unicode="j" glyph-name="j" horiz-adv-x="503" d="M-82 -323Q-64 -325 -49 -327T-17 -330Q44 -330 85 -310T152 -248T189 -142T202 12V1026H326V105Q326 -38 316 -122T274 -281T181 -401T19 -445Q-30 -445 -80 -435L-82 -323ZM317 1478V1354H201V1478H317Z" />
<glyph unicode="k" glyph-name="k" horiz-adv-x="1082" d="M1050 0H884L317 535V0H193V1508H317V569L843 1026H1006L459 545L1050 0Z" />
<glyph unicode="l" glyph-name="l" horiz-adv-x="503" d="M316 1508V0H192V1508H316Z" />
<glyph unicode="m" glyph-name="m" horiz-adv-x="1901" d="M303 1026L308 829Q331 886 369 928T455 997T560 1037T675 1051Q739 1051 795 1033T895 983T968 905T1010 805Q1032 868 1069 914T1157 991T1268 1036T1401 1051Q1482 1051 1540 1030T1637 975T1700 897T1736
807T1751 717T1755 639V0H1631V561Q1631 655 1619 728T1576 850T1490 925T1349 951Q1271 951 1212 922T1112 844T1050 729T1028 590V0H904V638Q904 792 831 871T620 951Q542 951 483 924T385 847T325 732T303 590V0H179V770Q179 787 179 851T174 1026H303Z" />
<glyph unicode="n" glyph-name="n" horiz-adv-x="1217" d="M311 0H187V788L178 1026H308L314 825Q435 1051 694 1051Q769 1051 825 1033T922 984T989 910T1029 820T1049 719T1055 614Q1056 587 1056 514T1056 333V0H932V542Q932 596 932 627T930 667Q925 808 855
879T661 951Q605 951 558 937T472 898T404 844T353 781T321 717T311 661V0Z" />
<glyph unicode="o" glyph-name="o" horiz-adv-x="1238" d="M633 1051Q761 1051 857 1010T1017 896T1114 725T1147 515Q1147 405 1113 308T1012 137T849 20T625 -23Q500 -23 404 18T243 131T144 300T110 509Q110 621 144 720T245 892T409 1008T633 1051ZM1017 511Q1017
600 994 680T922 820T801 915T626 951Q530 951 458 915T337 817T264 676T239 510Q239 424 263 345T337 206T460 111T632 75Q728 75 800 111T921 207T993 346T1017 511Z" />
<glyph unicode="p" glyph-name="p" horiz-adv-x="1239" d="M299 -443H175V767Q175 795 174 859T168 1026H297L300 818Q361 941 466 996T705 1051Q817 1051 899 1010T1036 897T1118 731T1145 529Q1145 420 1116 320T1030 144T885 23T680 -23Q429 -23 299 194V-443ZM298
494Q298 404 322 328T392 195T505 107T659 75Q753 75 820 111T930 209T993 351T1014 521Q1014 604 996 681T937 819T828 915T664 951Q561 951 491 913T378 812T317 667T298 494Z" />
<glyph unicode="q" glyph-name="q" horiz-adv-x="1240" d="M956 210Q891 90 787 34T553 -23Q442 -23 360 17T222 129T140 297T112 505Q112 614 141 713T229 887T375 1006T579 1051Q713 1051 810 997T956 839L960 1026H1083Q1081 942 1081 892T1080 825V-442H956V210ZM959
544Q959 633 936 707T867 836T755 920T603 951Q510 951 442 916T330 820T263 678T241 506Q241 420 260 342T322 204T431 110T593 75Q699 75 769 115T882 222T941 373T959 544Z" />
<glyph unicode="r" glyph-name="r" horiz-adv-x="737" d="M313 0H189V788L179 1026H309L313 778Q329 850 359 901T429 986T517 1034T623 1051Q652 1051 673 1050T709 1044L710 930Q701 934 678 937T616 941Q550 941 495 916T401 842T338 726T313 574V0Z" />
<glyph unicode="s" glyph-name="s" horiz-adv-x="1007" d="M800 894Q756 921 680 936T512 951Q459 951 414 940T337 907T286 855T268 785Q268 735 282 706T325 659T394 629T488 604T605 570T743 513Q770 500 799 482T852 435T891 369T906 278Q906 201 871 145T777
51T645 -5T492 -23Q439 -23 388 -18T290 0T206 33T141 82L172 176Q195 150 230 131T306 100T394 81T488 75Q551 75 604 87T695 122T755 180T776 261Q776 314 752 349T685 408T584 449T457 486Q384 508 326 532T226 589T162 667T139 779Q139 848 170 899T254 984T371
1034T506 1051Q606 1051 690 1033T829 973L800 894Z" />
<glyph unicode="t" glyph-name="t" horiz-adv-x="729" d="M271 944H64V1026H271L272 1314L395 1348V1026H659V944H395V303Q395 244 398 200T414 128T459 85T552 71Q624 71 662 90V5Q640 -10 611 -16T543 -23Q460 -23 407 -5T323 49T282 141T271 270V944Z" />
<glyph unicode="u" glyph-name="u" horiz-adv-x="1217" d="M925 1026H1049V237Q1049 221 1050 162T1054 0H925V203Q869 85 775 31T546 -23Q435 -23 364 15T251 113T193 247T177 396V1026H301V405Q304 324 317 263T364 160T454 97T589 75Q670 75 732 101T837 174T902
284T925 421V433V1026Z" />
<glyph unicode="v" glyph-name="v" horiz-adv-x="1063" d="M912 1026H1042L608 0H471L43 1026H175L460 324L543 111L618 298L912 1026Z" />
<glyph unicode="w" glyph-name="w" horiz-adv-x="1695" d="M807 1026H942L1194 274L1250 81L1304 271L1549 1026H1678L1309 0H1180L922 779L872 944L820 776L540 0H409L45 1026H174L427 272L483 95L537 260L807 1026Z" />
<glyph unicode="x" glyph-name="x" horiz-adv-x="1043" d="M844 0L528 449L194 0H57L454 514L74 1026H231L538 583L854 1026H983L605 518L999 0H844Z" />
<glyph unicode="y" glyph-name="y" horiz-adv-x="1069" d="M46 1026H177L540 90L916 1026H1044L581 -84Q553 -151 516 -210T433 -316T330 -395T208 -439L141 -358Q222 -337 275 -304T362 -232T416 -151T452 -71L477 -10L46 1026Z" />
<glyph unicode="z" glyph-name="z" horiz-adv-x="958" d="M78 67L721 922H106V1026H882V961L242 103H899L879 0H78V67Z" />
<glyph unicode="{" glyph-name="braceleft" horiz-adv-x="627" d="M273 1172Q273 1242 289 1296T339 1389T428 1447T561 1467L558 1375Q511 1373 480 1367T429 1342T401 1285T392 1182V880Q392 807 373 756T327 671T270 620T218 598Q265 582 297 553T350 487T380
407T390 321L391 -22Q391 -24 391 -26T390 -30Q390 -108 431 -142T560 -177L559 -268Q499 -268 446 -255T354 -210T292 -130T269 -8L273 265Q273 316 269 364T247 451T197 516T107 550L108 647Q200 655 238 709T275 870L273 1172Z" />
<glyph unicode="|" glyph-name="bar" horiz-adv-x="500" d="M195 -510V1564H314V-510H195Z" />
<glyph unicode="}" glyph-name="braceright" horiz-adv-x="627" d="M86 1375L87 1467Q153 1462 206 1445T297 1396T355 1317T376 1204L373 906Q373 857 379 813T402 734T452 677T539 649L537 552Q489 548 457 530T406 479T378 401T370 299L369 -6Q369 -63 353
-109T310 -188T247 -240T168 -264Q144 -266 124 -267T87 -268L88 -177Q137 -177 170 -169T222 -133T250 -51T258 95Q258 151 256 208T253 320Q253 392 272 443T318 528T373 579T422 598Q368 617 336 649T287 719T264 799T258 879L257 1192Q257 1233 249 1266T221
1322T168 1359T86 1375Z" />
<glyph unicode="~" glyph-name="asciitilde" horiz-adv-x="1458" d="M500 693Q537 693 580 681T668 650T757 610T843 570T920 539T982 526Q1020 526 1053 541T1111 581T1155 638T1181 704L1261 678Q1248 622 1223 576T1162 497T1080 445T978 426Q948 426 911 438T832
469T746 509T659 549T575 580T499 593Q455 593 419 578T356 537T311 478T285 410L212 443Q223 492 247 537T307 617T391 672T500 693Z" />
<glyph unicode="&#xa0;" glyph-name="nbspace" horiz-adv-x="561" />
<glyph unicode="&#xa1;" glyph-name="exclamdown" horiz-adv-x="737" d="M458 1059H280V1234H468L458 1059ZM295 826H427V-256H295V826Z" />
<glyph unicode="&#xa2;" glyph-name="cent" horiz-adv-x="1189" d="M697 1128L742 1369H823L774 1128Q819 1121 857 1105T927 1066T981 1013T1015 949L968 890Q943 944 893 975T764 1020L625 172Q665 163 708 163Q750 163 791 172T869 200T935 246T981 312L1040
257Q1024 207 993 170T918 109T824 73T716 61Q666 61 615 70L567 -165H484L538 80Q452 97 385 142T273 254T203 403T179 580Q179 691 214 790T315 965T478 1084T697 1128ZM552 191L688 1024Q604 1019 534 987T413 900T335 767T307 593Q307 519 324 454T372 337T449
247T552 191Z" />
<glyph unicode="&#xa3;" glyph-name="sterling" horiz-adv-x="1189" d="M1009 1275Q985 1291 955 1305T891 1330T822 1347T752 1354Q665 1354 607 1330T514 1259T465 1142T450 983V963L448 826H791V715H447L442 509Q440 416 437 353T424 246T393 170T335 110H1084V0H134L135
110Q171 119 203 133T259 177T297 255T314 380L323 715H133V826H322Q321 842 321 857T321 889Q321 962 327 1033T350 1168T398 1286T476 1380T592 1442T752 1464Q798 1464 843 1456T930 1432T1005 1395T1065 1350L1009 1275Z" />
<glyph unicode="&#xa4;" glyph-name="currency" horiz-adv-x="1238" d="M566 1051Q631 1051 691 1034L793 1301L835 1285L732 1018Q836 971 887 878T938 663Q938 612 928 565T897 475T848 397T780 336L931 56L896 40L747 316Q706 296 660 285T560 274Q498 274
450 287L354 40L317 56L410 301Q356 322 315 357T245 439T203 541T188 659Q188 715 200 767T235 865T292 946T372 1006L221 1285L261 1301L411 1023Q477 1051 566 1051ZM844 660Q844 724 827 782T776 884T688 953T561 979Q492 979 440 953T352 882T299 781T281
660Q281 597 299 540T352 440T441 371T565 345Q635 345 687 371T774 440T826 541T844 660Z" />
<glyph unicode="&#xa5;" glyph-name="yen" horiz-adv-x="1189" d="M527 704L54 1436H205L480 980L606 765L722 958L1017 1436H1153L681 704H1071V596H664V401H1075V292H661V0H530V292H125L145 401H535V596H122V704H527Z" />
<glyph unicode="&#xa6;" glyph-name="brokenbar" horiz-adv-x="500" d="M198 763V1564H314V763H198ZM311 394V-510H195V394H311Z" />
<glyph unicode="&#xa7;" glyph-name="section" horiz-adv-x="1097" d="M831 1366Q814 1375 790 1382T737 1395T678 1403T621 1406Q568 1406 523 1397T444 1369T392 1320T373 1248Q373 1213 385 1186T425 1134T500 1083T618 1025Q676 1000 729 973T822 913T886
839T910 745Q910 698 893 659T846 587T779 528T698 480Q738 461 772 439T832 388T871 325T885 244Q885 174 853 119T766 27T639 -31T488 -51Q355 -51 234 -2L232 109Q294 80 358 68T486 55Q550 55 600 68T685 106T738 162T756 232Q756 271 739 299T687 352T604
397T491 444Q462 455 462 455L471 451Q411 477 362 505T279 568T226 644T207 737Q207 785 224 824T271 894T339 949T421 991Q380 1014 348 1039T292 1093T257 1159T245 1241Q245 1308 274 1358T354 1442T473 1492T619 1509Q650 1509 677 1507T729 1501T780 1490T831
1474V1366ZM605 525Q634 543 664 564T720 610T761 665T777 731Q777 770 760 797T714 846T646 885T562 922Q538 932 529 936T517 942T513 945T505 949Q473 933 444 914T391 871T354 818T340 752Q340 708 359 677T413 620T497 572T605 525Z" />
<glyph unicode="&#xa8;" glyph-name="dieresis" horiz-adv-x="743" d="M324 1293H205V1421H325L324 1293ZM700 1293H577V1421H700V1293Z" />
<glyph unicode="&#xa9;" glyph-name="copyright" horiz-adv-x="1829" d="M932 51Q1035 51 1128 75T1302 143T1448 250T1560 387T1632 550T1657 732Q1657 828 1632 916T1559 1080T1446 1218T1299 1324T1123 1392T925 1416Q773 1416 641 1363T410 1218T256 1002T199
734Q199 590 255 465T409 248T642 104T932 51ZM930 -32Q818 -32 714 -5T520 72T355 192T227 347T144 529T115 732Q115 837 144 935T227 1118T355 1273T520 1394T713 1471T927 1499Q1039 1499 1142 1472T1336 1394T1500 1274T1628 1119T1710 936T1739 733Q1739 628
1710 531T1628 348T1500 193T1336 73T1144 -4T930 -32ZM1227 1068Q1184 1119 1113 1145T954 1171Q862 1171 790 1136T668 1041T591 901T564 729Q564 638 586 559T656 421T777 329T953 295Q1139 295 1255 395L1285 298Q1219 244 1131 221T937 197Q812 197 718 238T561
350T467 516T435 720Q435 833 469 933T567 1108T726 1227T943 1271Q1060 1271 1144 1238T1279 1144L1227 1068Z" />
<glyph unicode="&#xaa;" glyph-name="ordfeminine" horiz-adv-x="745" d="M159 1429Q208 1463 269 1478T403 1493Q457 1493 504 1479T586 1437T641 1368T661 1274Q661 1266 662 1263L660 933Q660 901 662 873T667 814H579L577 941Q564 912 540 886T482 839T407
808T321 796Q271 796 229 810T155 850T105 914T87 997Q87 1180 318 1198Q387 1205 449 1210T576 1220Q576 1280 567 1318T536 1379T479 1410T394 1419Q336 1419 283 1409T187 1370L159 1429ZM345 865Q409 865 453 891T524 954T563 1033T575 1107L573 1157Q534 1148
490 1144T401 1135T317 1123T247 1100T198 1060T179 995Q179 929 225 897T345 865Z" />
<glyph unicode="&#xab;" glyph-name="guillemotleft" horiz-adv-x="1156" d="M744 911H854L595 541L847 177H740L475 541L744 911ZM445 911H551L294 541L546 177H439L174 541L445 911Z" />
<glyph unicode="&#xac;" glyph-name="logicalnot" horiz-adv-x="1458" d="M1149 247V684H219V789H1257V247H1149Z" />
<glyph unicode="&#xae;" glyph-name="registered" horiz-adv-x="1829" d="M731 689V282H631V1198H889Q1103 1198 1204 1134T1306 952Q1306 904 1289 860T1235 781T1142 725T1010 700Q1034 686 1060 658T1114 594T1169 516T1222 432T1271 351T1313 282H1195L1072
494Q1030 567 989 615T903 689H731ZM732 774H885Q957 774 1015 779T1113 801T1176 849T1198 934Q1198 991 1181 1025T1125 1079T1024 1105T874 1112H728L732 774ZM932 51Q1035 51 1128 75T1302 143T1448 250T1560 387T1632 550T1657 732Q1657 828 1632 916T1559
1080T1446 1218T1299 1324T1123 1392T925 1416Q773 1416 641 1363T410 1218T256 1002T199 734Q199 590 255 465T409 248T642 104T932 51ZM930 -32Q818 -32 714 -5T520 72T355 192T227 347T144 529T115 732Q115 837 144 935T227 1118T355 1273T520 1394T713 1471T927
1499Q1039 1499 1142 1472T1336 1394T1500 1274T1628 1119T1710 936T1739 733Q1739 628 1710 531T1628 348T1500 193T1336 73T1144 -4T930 -32Z" />
<glyph unicode="&#xaf;" glyph-name="uni00AF" horiz-adv-x="850" d="M737 1430H-100L-108 1529H729L737 1430Z" />
<glyph unicode="0;" glyph-name="degree" horiz-adv-x="844" d="M209 1169Q209 1123 225 1085T270 1018T338 974T426 958Q472 958 512 974T583 1020T630 1089T647 1174Q647 1220 630 1259T584 1326T514 1371T426 1388Q381 1388 342 1371T273 1323T226 1254T209
1169ZM730 1176Q730 1116 706 1063T640 971T543 909T425 886Q364 886 310 907T214 967T149 1056T125 1167Q125 1227 149 1280T214 1373T310 1436T427 1460Q490 1460 545 1438T641 1376T706 1286T730 1176Z" />
<glyph unicode="1;" glyph-name="plusminus" horiz-adv-x="1458" d="M221 0V107H1257V0H221ZM685 724V1110H788V724H1255V617H787V232H683V617H217L237 724H685Z" />
<glyph unicode="2;" glyph-name="twosuperior" horiz-adv-x="1190" d="M303 628V715Q349 758 399 803T498 893T589 983T665 1072T717 1158T737 1239Q737 1300 693 1337T571 1375Q502 1375 452 1342T374 1251L315 1306Q345 1378 415 1417T579 1456Q632 1456
678 1441T759 1398T812 1330T832 1241Q832 1177 803 1117T724 996T605 873T458 744L418 710H831V628H303Z" />
<glyph unicode="3;" glyph-name="threesuperior" horiz-adv-x="1190" d="M261 1370Q301 1409 364 1433T496 1457Q547 1457 594 1443T678 1402T737 1334T759 1241Q759 1172 721 1122T608 1051Q686 1029 733 978T780 846Q780 791 757 747T694 673T602 626T489
609Q420 609 361 630T259 693L301 759Q339 724 385 707T484 689Q526 689 562 700T627 731T671 781T687 849Q687 893 670 923T621 973T544 1000T444 1009Q430 1009 423 1009T410 1008H405L407 1091H435Q485 1091 526 1098T597 1123T643 1168T660 1238Q660 1274 648
1299T613 1341T561 1366T493 1374Q435 1374 387 1355T301 1303L261 1370Z" />
<glyph unicode="4;" glyph-name="acute" horiz-adv-x="607" d="M543 1508H702L417 1216H337L543 1508Z" />
<glyph unicode="5;" glyph-name="mu1" horiz-adv-x="1182" d="M879 208Q837 90 764 34T577 -23Q390 -23 326 134L312 -407H179V1026H314L313 396Q313 395 313 392T312 388Q312 321 332 268T389 177T475 120T585 100Q651 100 705 123T798 191T858 297T880 436V1026H1016V259Q1016
171 1021 106T1046 0H908Q897 26 888 73T878 188Q878 193 878 199T879 208Z" />
<glyph unicode="6;" glyph-name="paragraph" horiz-adv-x="1214" d="M470 -154V814H460Q392 814 331 838T224 906T152 1012T125 1150Q125 1242 166 1303T277 1400T441 1452T639 1467H1012V1377H923V-154H824V1377H584V-154H470Z" />
<glyph unicode="7;" glyph-name="middot" horiz-adv-x="444" d="M184 523Q164 523 145 531T112 555T89 589T80 631Q80 673 105 701T168 729Q190 729 209 720T244 696T268 661T277 617Q277 578 251 551T184 523Z" />
<glyph unicode="8;" glyph-name="cedilla" horiz-adv-x="529" d="M84 -342Q118 -353 152 -358T219 -363Q295 -363 327 -338T359 -271Q359 -243 349 -225T319 -195T272 -179T210 -174Q211 -174 213 -174T216 -175Q212 -175 209 -176L179 -179L209 -20H256L238
-130Q245 -130 251 -130T264 -129Q305 -129 340 -136T402 -160T444 -203T459 -266Q459 -303 442 -330T395 -376T322 -403T231 -412Q189 -412 152 -407T79 -393L84 -342Z" />
<glyph unicode="9;" glyph-name="onesuperior" horiz-adv-x="1190" d="M261 1349Q306 1363 345 1384T422 1428L505 1440V708H631V628H292V711H419L418 1337Q380 1314 339 1295T260 1260L261 1349Z" />
<glyph unicode="a;" glyph-name="ordmasculine" horiz-adv-x="824" d="M425 1492Q510 1492 575 1466T683 1393T749 1282T771 1144Q771 1072 748 1009T681 898T573 823T424 795Q338 795 273 822T163 896T97 1007T75 1146Q75 1219 98 1282T166 1391T276 1465T425
1492ZM168 1146Q168 1089 184 1039T233 951T313 891T427 869Q488 869 535 891T614 950T663 1037T680 1141Q680 1198 663 1248T613 1337T532 1397T420 1419Q359 1419 312 1397T233 1338T185 1251T168 1146Z" />
<glyph unicode="b;" glyph-name="guillemotright" horiz-adv-x="1156" d="M722 177H615L874 542L620 911H729L996 542L722 177ZM312 177H204L464 542L209 911H318L584 542L312 177Z" />
<glyph unicode="c;" glyph-name="onequarter" horiz-adv-x="1986" d="M261 1349Q306 1363 345 1384T422 1428L505 1440V708H631V628H292V711H419L418 1337Q380 1314 339 1295T260 1260L261 1349ZM1475 1452L560 0H462L1379 1452H1475ZM1470 61V257H1078V325L1448
850H1556V328H1673L1679 257H1554V216V102V61H1470ZM1468 328L1467 765Q1456 748 1447 732T1426 699L1162 328H1468Z" />
<glyph unicode="d;" glyph-name="onehalf" horiz-adv-x="1858" d="M261 1349Q306 1363 345 1384T422 1428L505 1440V708H631V628H292V711H419L418 1337Q380 1314 339 1295T260 1260L261 1349ZM1417 1452L502 0H404L1321 1452H1417ZM1084 -1V86Q1130 129 1180
174T1279 264T1370 354T1446 443T1498 529T1518 610Q1518 671 1474 708T1352 746Q1283 746 1233 713T1155 622L1096 677Q1126 749 1196 788T1360 827Q1413 827 1459 812T1540 769T1593 701T1613 612Q1613 548 1584 488T1505 367T1386 244T1239 115L1199 81H1612V-1H1084Z"
/>
<glyph unicode="e;" glyph-name="threequarters" horiz-adv-x="1921" d="M462 1370Q502 1409 565 1433T697 1457Q748 1457 795 1443T879 1402T938 1334T960 1241Q960 1172 922 1122T809 1051Q887 1029 934 978T981 846Q981 791 958 747T895 673T803 626T690
609Q621 609 562 630T460 693L502 759Q540 724 586 707T685 689Q727 689 763 700T828 731T872 781T888 849Q888 893 871 923T822 973T745 1000T645 1009Q631 1009 624 1009T611 1008H606L608 1091H636Q686 1091 727 1098T798 1123T844 1168T861 1238Q861 1274 849
1299T814 1341T762 1366T694 1374Q636 1374 588 1355T502 1303L462 1370ZM1461 1452L546 0H448L1365 1452H1461ZM1439 65V261H1047V329L1417 854H1525V332H1642L1648 261H1523V220V106V65H1439ZM1437 332L1436 769Q1425 752 1416 736T1395 703L1131 332H1437Z"
/>
<glyph unicode="f;" glyph-name="questiondown" horiz-adv-x="1032" d="M717 941L731 764Q732 759 732 750Q732 696 703 651T629 563T533 478T437 390T364 292T334 175Q334 111 357 66T419 -9T506 -51T607 -65Q654 -65 694 -59T771 -42T839 -21T899 -1V-107Q835
-142 766 -157T634 -173Q545 -173 468 -153T333 -90T242 16T209 166Q209 262 249 333T351 455Q368 469 379 478T404 500Q467 559 508 596T574 664T609 727T619 807Q619 836 616 872L611 941H717ZM557 1332H730V1153H557V1332Z" />
<glyph unicode="0;" glyph-name="Agrave" horiz-adv-x="1425" d="M177 0H38L647 1456H798L1401 0H1260L1081 426H347L177 0ZM382 520H1047L801 1168L722 1389L645 1168L382 520ZM387 1938H545L774 1646H692L387 1938Z" />
<glyph unicode="1;" glyph-name="Aacute" horiz-adv-x="1425" d="M177 0H38L647 1456H798L1401 0H1260L1081 426H347L177 0ZM382 520H1047L801 1168L722 1389L645 1168L382 520ZM722 1938H881L596 1646H516L722 1938Z" />
<glyph unicode="2;" glyph-name="Acircumflex" horiz-adv-x="1425" d="M177 0H38L647 1456H798L1401 0H1260L1081 426H347L177 0ZM382 520H1047L801 1168L722 1389L645 1168L382 520ZM455 1644L664 1940H799L1007 1644H928L729 1884L529 1644H455Z" />
<glyph unicode="3;" glyph-name="Atilde" horiz-adv-x="1425" d="M177 0H38L647 1456H798L1401 0H1260L1081 426H347L177 0ZM382 520H1047L801 1168L722 1389L645 1168L382 520ZM924 1881H986Q982 1842 969 1808T933 1748T879 1709T810 1694Q786 1694 756
1705T692 1729T621 1754T548 1765Q497 1765 467 1744T432 1677H374Q382 1759 429 1809T554 1859Q584 1859 614 1848T675 1823T741 1798T812 1787Q858 1787 888 1810T924 1881Z" />
<glyph unicode="4;" glyph-name="Adieresis" horiz-adv-x="1425" d="M177 0H38L647 1456H798L1401 0H1260L1081 426H347L177 0ZM382 520H1047L801 1168L722 1389L645 1168L382 520ZM602 1723H483V1851H603L602 1723ZM978 1723H855V1851H978V1723Z" />
<glyph unicode="5;" glyph-name="Aring" horiz-adv-x="1425" d="M177 0H38L647 1456H798L1401 0H1260L1081 426H347L177 0ZM382 520H1047L801 1168L722 1389L645 1168L382 520ZM873 1801Q873 1828 861 1852T828 1896T779 1927T717 1939Q688 1939 662 1928T615
1897T582 1853T569 1801Q569 1739 610 1700T722 1660Q752 1660 779 1671T827 1702T860 1747T873 1801ZM529 1800Q529 1838 544 1871T586 1928T648 1965T724 1979Q764 1979 798 1966T859 1928T900 1872T915 1801Q915 1764 900 1731T858 1673T796 1634T720 1619Q681
1619 646 1632T585 1670T544 1727T529 1800Z" />
<glyph unicode="6;" glyph-name="AE" horiz-adv-x="2028" d="M943 1342L468 521H1096L1033 1342H943ZM866 1456H1889V1342H1152L1193 804H1848V691H1209L1254 114H1913V0H1144L1112 407H410L179 0H33L866 1456Z" />
<glyph unicode="7;" glyph-name="Ccedilla" horiz-adv-x="1399" d="M1204 1266Q1072 1368 848 1368Q699 1368 590 1312T409 1163T302 952T267 711Q267 587 299 475T400 278T574 142T826 91Q959 91 1067 121T1247 215L1289 118Q1203 49 1078 13T794 -23Q632
-23 508 34T299 191T172 424T128 709Q128 865 176 1005T315 1251T536 1420T832 1483Q964 1483 1064 1450T1252 1341L1204 1266ZM631 -342Q665 -353 699 -358T766 -363Q842 -363 874 -338T906 -271Q906 -243 896 -225T866 -195T819 -179T757 -174Q758 -174 760 -174T763
-175Q759 -175 756 -176L726 -179L756 -20H803L785 -130Q792 -130 798 -130T811 -129Q852 -129 887 -136T949 -160T991 -203T1006 -266Q1006 -303 989 -330T942 -376T869 -403T778 -412Q736 -412 699 -407T626 -393L631 -342Z" />
<glyph unicode="8;" glyph-name="Egrave" horiz-adv-x="1218" d="M1096 114V0H226V1456H1068V1342H358V804H1028V691H356V114H1096ZM283 1938H441L670 1646H588L283 1938Z" />
<glyph unicode="9;" glyph-name="Eacute" horiz-adv-x="1218" d="M618 1938H777L492 1646H412L618 1938ZM1096 114V0H226V1456H1068V1342H358V804H1028V691H356V114H1096Z" />
<glyph unicode="a;" glyph-name="Ecircumflex" horiz-adv-x="1218" d="M356 1644L565 1940H700L908 1644H829L630 1884L430 1644H356ZM1096 114V0H226V1456H1068V1342H358V804H1028V691H356V114H1096Z" />
<glyph unicode="b;" glyph-name="Edieresis" horiz-adv-x="1218" d="M502 1723H383V1851H503L502 1723ZM878 1723H755V1851H878V1723ZM1096 114V0H226V1456H1068V1342H358V804H1028V691H356V114H1096Z" />
<glyph unicode="c;" glyph-name="Igrave" horiz-adv-x="591" d="M370 0H235V1456H370V0ZM-29 1938H129L358 1646H276L-29 1938Z" />
<glyph unicode="d;" glyph-name="Iacute" horiz-adv-x="591" d="M370 0H235V1456H370V0ZM306 1938H465L180 1646H100L306 1938Z" />
<glyph unicode="e;" glyph-name="Icircumflex" horiz-adv-x="591" d="M370 0H235V1456H370V0ZM37 1644L246 1940H381L589 1644H510L311 1884L111 1644H37Z" />
<glyph unicode="f;" glyph-name="Idieresis" horiz-adv-x="591" d="M370 0H235V1456H370V0ZM183 1723H64V1851H184L183 1723ZM559 1723H436V1851H559V1723Z" />
<glyph unicode="&#xd0;" glyph-name="Eth" horiz-adv-x="1546" d="M13 688V790H213V1456H515Q652 1456 773 1444T996 1400T1179 1316T1316 1182T1403 988T1433 725Q1433 560 1378 426T1217 198T960 52T616 0H211V688H13ZM341 114H635Q804 114 928 159T1133 284T1255
475T1295 718Q1295 892 1246 1011T1101 1203T862 1309T533 1342H344V790H558V688H341V114Z" />
<glyph unicode="&#xd1;" glyph-name="Ntilde" horiz-adv-x="1594" d="M343 1322V0H212V1456H389L1145 323L1279 102V442V1456H1401V0H1221L462 1132L343 1322ZM1058 1881H1120Q1116 1842 1103 1808T1067 1748T1013 1709T944 1694Q920 1694 890 1705T826 1729T755
1754T682 1765Q631 1765 601 1744T566 1677H508Q516 1759 563 1809T688 1859Q718 1859 748 1848T809 1823T875 1798T946 1787Q992 1787 1022 1810T1058 1881Z" />
<glyph unicode="&#xd2;" glyph-name="Ograve" horiz-adv-x="1663" d="M1551 730Q1551 565 1503 427T1362 188T1138 33T838 -23Q674 -23 544 30T322 181T183 417T134 727Q134 892 182 1030T323 1269T548 1426T850 1483Q1012 1483 1142 1430T1363 1278T1502 1040T1551
730ZM271 725Q271 592 307 477T416 276T594 141T839 91Q980 91 1086 140T1264 275T1370 479T1406 735Q1406 868 1371 984T1266 1185T1089 1320T841 1369Q701 1369 595 1316T416 1175T308 969T271 725ZM506 1938H664L893 1646H811L506 1938Z" />
<glyph unicode="&#xd3;" glyph-name="Oacute" horiz-adv-x="1663" d="M841 1938H1000L715 1646H635L841 1938ZM1551 730Q1551 565 1503 427T1362 188T1138 33T838 -23Q674 -23 544 30T322 181T183 417T134 727Q134 892 182 1030T323 1269T548 1426T850 1483Q1012
1483 1142 1430T1363 1278T1502 1040T1551 730ZM271 725Q271 592 307 477T416 276T594 141T839 91Q980 91 1086 140T1264 275T1370 479T1406 735Q1406 868 1371 984T1266 1185T1089 1320T841 1369Q701 1369 595 1316T416 1175T308 969T271 725Z" />
<glyph unicode="&#xd4;" glyph-name="Ocircumflex" horiz-adv-x="1663" d="M568 1644L777 1940H912L1120 1644H1041L842 1884L642 1644H568ZM1551 730Q1551 565 1503 427T1362 188T1138 33T838 -23Q674 -23 544 30T322 181T183 417T134 727Q134 892 182 1030T323
1269T548 1426T850 1483Q1012 1483 1142 1430T1363 1278T1502 1040T1551 730ZM271 725Q271 592 307 477T416 276T594 141T839 91Q980 91 1086 140T1264 275T1370 479T1406 735Q1406 868 1371 984T1266 1185T1089 1320T841 1369Q701 1369 595 1316T416 1175T308
969T271 725Z" />
<glyph unicode="&#xd5;" glyph-name="Otilde" horiz-adv-x="1663" d="M1551 730Q1551 565 1503 427T1362 188T1138 33T838 -23Q674 -23 544 30T322 181T183 417T134 727Q134 892 182 1030T323 1269T548 1426T850 1483Q1012 1483 1142 1430T1363 1278T1502 1040T1551
730ZM271 725Q271 592 307 477T416 276T594 141T839 91Q980 91 1086 140T1264 275T1370 479T1406 735Q1406 868 1371 984T1266 1185T1089 1320T841 1369Q701 1369 595 1316T416 1175T308 969T271 725ZM1043 1881H1105Q1101 1842 1088 1808T1052 1748T998 1709T929
1694Q905 1694 875 1705T811 1729T740 1754T667 1765Q616 1765 586 1744T551 1677H493Q501 1759 548 1809T673 1859Q703 1859 733 1848T794 1823T860 1798T931 1787Q977 1787 1007 1810T1043 1881Z" />
<glyph unicode="&#xd6;" glyph-name="Odieresis" horiz-adv-x="1663" d="M677 1723H558V1851H678L677 1723ZM1053 1723H930V1851H1053V1723ZM1551 730Q1551 565 1503 427T1362 188T1138 33T838 -23Q674 -23 544 30T322 181T183 417T134 727Q134 892 182 1030T323
1269T548 1426T850 1483Q1012 1483 1142 1430T1363 1278T1502 1040T1551 730ZM271 725Q271 592 307 477T416 276T594 141T839 91Q980 91 1086 140T1264 275T1370 479T1406 735Q1406 868 1371 984T1266 1185T1089 1320T841 1369Q701 1369 595 1316T416 1175T308
969T271 725Z" />
<glyph unicode="&#xd7;" glyph-name="multiply" horiz-adv-x="1458" d="M1047 911L1127 837L815 554L1168 272L1103 200L741 487L425 200L347 272L656 554L301 837L369 911L731 622L1047 911ZM1169 272H1168L1171 275L1169 272ZM345 272H347H345Z" />
<glyph unicode="&#xd8;" glyph-name="Oslash" horiz-adv-x="1663" d="M1551 730Q1551 565 1503 427T1362 188T1138 33T838 -23Q729 -23 633 1L584 -126H468L531 37Q339 122 237 298T134 727Q134 892 182 1030T323 1269T548 1426T850 1483Q973 1483 1073 1452L1117
1565H1238L1178 1411Q1358 1321 1454 1148T1551 730ZM271 725Q271 629 290 542T347 382T443 250T575 151L1030 1341Q947 1369 841 1369Q701 1369 595 1316T416 1175T308 969T271 725ZM839 91Q980 91 1086 140T1264 275T1370 479T1406 735Q1406 922 1340 1066T1133
1294L676 111Q753 91 839 91Z" />
<glyph unicode="&#xd9;" glyph-name="Ugrave" horiz-adv-x="1532" d="M1212 1456H1338L1333 548Q1332 414 1297 308T1190 129T1013 16T764 -23Q627 -23 527 12T360 114T255 277T209 496Q208 501 208 504T208 513V532L214 1456H339L336 543Q336 437 361 354T440
212T577 122T774 91Q880 91 961 116T1096 194T1177 331T1206 533L1212 1456ZM440 1938H598L827 1646H745L440 1938Z" />
<glyph unicode="&#xda;" glyph-name="Uacute" horiz-adv-x="1532" d="M775 1938H934L649 1646H569L775 1938ZM1212 1456H1338L1333 548Q1332 414 1297 308T1190 129T1013 16T764 -23Q627 -23 527 12T360 114T255 277T209 496Q208 501 208 504T208 513V532L214
1456H339L336 543Q336 437 361 354T440 212T577 122T774 91Q880 91 961 116T1096 194T1177 331T1206 533L1212 1456Z" />
<glyph unicode="&#xdb;" glyph-name="Ucircumflex" horiz-adv-x="1532" d="M490 1644L699 1940H834L1042 1644H963L764 1884L564 1644H490ZM1212 1456H1338L1333 548Q1332 414 1297 308T1190 129T1013 16T764 -23Q627 -23 527 12T360 114T255 277T209 496Q208
501 208 504T208 513V532L214 1456H339L336 543Q336 437 361 354T440 212T577 122T774 91Q880 91 961 116T1096 194T1177 331T1206 533L1212 1456Z" />
<glyph unicode="&#xdc;" glyph-name="Udieresis" horiz-adv-x="1532" d="M612 1723H493V1851H613L612 1723ZM988 1723H865V1851H988V1723ZM1212 1456H1338L1333 548Q1332 414 1297 308T1190 129T1013 16T764 -23Q627 -23 527 12T360 114T255 277T209 496Q208 501
208 504T208 513V532L214 1456H339L336 543Q336 437 361 354T440 212T577 122T774 91Q880 91 961 116T1096 194T1177 331T1206 533L1212 1456Z" />
<glyph unicode="&#xdd;" glyph-name="Yacute" horiz-adv-x="1266" d="M707 588V0H574V582L43 1456H187L643 691L1106 1456H1244L707 588ZM638 1938H797L512 1646H432L638 1938Z" />
<glyph unicode="&#xde;" glyph-name="Thorn" horiz-adv-x="1274" d="M350 0H224V1456H355V1237H553Q637 1237 717 1230T870 1204T1002 1154T1105 1076T1173 963T1198 810Q1198 697 1150 617T1020 485T830 409T603 384H357L350 0ZM357 498H648Q738 498 814 516T945
572T1031 668T1062 806Q1062 901 1028 962T933 1059T786 1109T597 1123H357V498Z" />
<glyph unicode="&#xdf;" glyph-name="germandbls" horiz-adv-x="1257" d="M316 0H195L194 1093Q194 1192 222 1272T304 1410T436 1498T615 1530Q708 1530 782 1506T907 1438T985 1338T1012 1216Q1012 1169 997 1126T956 1045T899 975T835 917T772 872T720 841Q709
833 706 829T702 817Q702 806 707 801T726 791Q778 770 832 747T936 694T1031 629T1108 550T1160 453T1179 336Q1179 255 1148 189T1065 76T946 3T807 -23Q722 -23 644 12T506 126L549 193Q600 133 668 104T806 75Q852 75 894 90T967 136T1017 211T1036 315Q1036
403 998 469T899 587T762 683T607 772L625 895Q672 917 716 949T793 1021T847 1111T868 1215Q868 1266 850 1306T799 1374T718 1417T612 1432Q529 1432 473 1406T381 1331T330 1213T314 1057L316 0Z" />
<glyph unicode="&#xe0;" glyph-name="agrave" horiz-adv-x="1244" d="M596 1051Q668 1051 725 1036T830 992T917 922T993 829L998 1026H1118V782V0H992L994 219Q980 178 945 136T858 58T739 0T593 -23Q466 -23 375 26T224 154T137 330T109 524Q109 623 139 718T230
887T382 1006T596 1051ZM997 525Q991 606 970 682T903 819T786 915T605 951Q504 951 433 912T315 811T248 671T227 518Q227 442 243 364T301 221T419 116T614 75Q694 75 764 101T885 180T967 313T997 500V525ZM330 1508H488L717 1216H635L330 1508Z" />
<glyph unicode="&#xe1;" glyph-name="aacute" horiz-adv-x="1244" d="M596 1051Q668 1051 725 1036T830 992T917 922T993 829L998 1026H1118V782V0H992L994 219Q980 178 945 136T858 58T739 0T593 -23Q466 -23 375 26T224 154T137 330T109 524Q109 623 139 718T230
887T382 1006T596 1051ZM997 525Q991 606 970 682T903 819T786 915T605 951Q504 951 433 912T315 811T248 671T227 518Q227 442 243 364T301 221T419 116T614 75Q694 75 764 101T885 180T967 313T997 500V525ZM664 1508H823L538 1216H458L664 1508Z" />
<glyph unicode="&#xe2;" glyph-name="acircumflex" horiz-adv-x="1244" d="M596 1051Q668 1051 725 1036T830 992T917 922T993 829L998 1026H1118V782V0H992L994 219Q980 178 945 136T858 58T739 0T593 -23Q466 -23 375 26T224 154T137 330T109 524Q109 623 139
718T230 887T382 1006T596 1051ZM997 525Q991 606 970 682T903 819T786 915T605 951Q504 951 433 912T315 811T248 671T227 518Q227 442 243 364T301 221T419 116T614 75Q694 75 764 101T885 180T967 313T997 500V525ZM328 1214L537 1510H672L880 1214H801L602
1454L402 1214H328Z" />
<glyph unicode="&#xe3;" glyph-name="atilde" horiz-adv-x="1244" d="M596 1051Q668 1051 725 1036T830 992T917 922T993 829L998 1026H1118V782V0H992L994 219Q980 178 945 136T858 58T739 0T593 -23Q466 -23 375 26T224 154T137 330T109 524Q109 623 139 718T230
887T382 1006T596 1051ZM997 525Q991 606 970 682T903 819T786 915T605 951Q504 951 433 912T315 811T248 671T227 518Q227 442 243 364T301 221T419 116T614 75Q694 75 764 101T885 180T967 313T997 500V525ZM867 1451H929Q925 1412 912 1378T876 1318T822 1279T753
1264Q729 1264 699 1275T635 1299T564 1324T491 1335Q440 1335 410 1314T375 1247H317Q325 1329 372 1379T497 1429Q527 1429 557 1418T618 1393T684 1368T755 1357Q801 1357 831 1380T867 1451Z" />
<glyph unicode="&#xe4;" glyph-name="adieresis" horiz-adv-x="1244" d="M596 1051Q668 1051 725 1036T830 992T917 922T993 829L998 1026H1118V782V0H992L994 219Q980 178 945 136T858 58T739 0T593 -23Q466 -23 375 26T224 154T137 330T109 524Q109 623 139
718T230 887T382 1006T596 1051ZM997 525Q991 606 970 682T903 819T786 915T605 951Q504 951 433 912T315 811T248 671T227 518Q227 442 243 364T301 221T419 116T614 75Q694 75 764 101T885 180T967 313T997 500V525ZM501 1293H382V1421H502L501 1293ZM877 1293H754V1421H877V1293Z"
/>
<glyph unicode="&#xe5;" glyph-name="aring" horiz-adv-x="1244" d="M596 1051Q668 1051 725 1036T830 992T917 922T993 829L998 1026H1118V782V0H992L994 219Q980 178 945 136T858 58T739 0T593 -23Q466 -23 375 26T224 154T137 330T109 524Q109 623 139 718T230
887T382 1006T596 1051ZM997 525Q991 606 970 682T903 819T786 915T605 951Q504 951 433 912T315 811T248 671T227 518Q227 442 243 364T301 221T419 116T614 75Q694 75 764 101T885 180T967 313T997 500V525ZM784 1371Q784 1398 772 1422T739 1466T690 1497T628
1509Q599 1509 573 1498T526 1467T493 1423T480 1371Q480 1309 521 1270T633 1230Q663 1230 690 1241T738 1272T771 1317T784 1371ZM440 1370Q440 1408 455 1441T497 1498T559 1535T635 1549Q675 1549 709 1536T770 1498T811 1442T826 1371Q826 1334 811 1301T769
1243T707 1204T631 1189Q592 1189 557 1202T496 1240T455 1297T440 1370Z" />
<glyph unicode="&#xe6;" glyph-name="ae" horiz-adv-x="1807" d="M226 810L157 878Q212 972 316 1012T557 1053Q617 1051 671 1035T768 988T840 909T879 797H884Q912 864 955 912T1049 991T1160 1038T1280 1053Q1392 1053 1474 1013T1611 903T1692 741T1719 545Q1719
535 1719 521T1718 498H938V456Q938 378 956 310T1015 190T1119 109T1273 79Q1385 79 1472 126T1614 258L1682 190Q1618 84 1512 30T1260 -25Q1194 -25 1134 -8T1023 41T934 122T871 234Q842 159 800 110T704 31T584 -12T441 -28Q364 -28 301 -7T191 54T120 150T94
279Q94 351 119 406T191 499T306 558T460 586Q549 595 632 598T810 604L809 618Q808 624 808 632T807 649Q802 713 788 768T745 864T667 928T545 951Q493 951 445 944T356 919T281 876T226 810ZM809 498L632 495Q552 493 478 486T346 456T255 392T220 283Q220 227
241 188T298 123T380 87T477 75Q572 75 636 108T738 196T793 324T809 474V498ZM936 600H1598Q1598 605 1598 611T1599 623Q1599 687 1579 746T1518 850T1418 923T1280 951Q1199 951 1135 923T1027 846T960 734T936 600Z" />
<glyph unicode="&#xe7;" glyph-name="ccedilla" horiz-adv-x="1046" d="M903 848Q861 899 790 925T631 951Q539 951 467 916T345 821T268 681T241 509Q241 418 263 339T333 201T454 109T630 75Q816 75 932 175L962 78Q896 24 808 1T614 -23Q489 -23 395 18T238
130T144 296T112 500Q112 613 146 713T244 888T403 1007T620 1051Q737 1051 821 1018T956 924L903 848ZM452 -342Q486 -353 520 -358T587 -363Q663 -363 695 -338T727 -271Q727 -243 717 -225T687 -195T640 -179T578 -174Q579 -174 581 -174T584 -175Q580 -175
577 -176L547 -179L577 -20H624L606 -130Q613 -130 619 -130T632 -129Q673 -129 708 -136T770 -160T812 -203T827 -266Q827 -303 810 -330T763 -376T690 -403T599 -412Q557 -412 520 -407T447 -393L452 -342Z" />
<glyph unicode="&#xe8;" glyph-name="egrave" horiz-adv-x="1173" d="M268 593H955V595V588Q952 669 933 735T874 850T775 924T629 951Q546 951 482 923T373 845T302 731T268 593ZM1001 202L1037 106Q962 37 863 7T638 -23Q519 -23 426 16T268 126T169 294T135
508Q135 619 169 718T267 891T423 1008T633 1051Q749 1051 834 1012T975 904T1058 737T1085 523Q1085 515 1085 506T1084 491H266V472Q266 383 292 310T369 185T490 104T651 75Q763 75 852 108T1001 202ZM295 1508H453L682 1216H600L295 1508Z" />
<glyph unicode="&#xe9;" glyph-name="eacute" horiz-adv-x="1173" d="M629 1508H788L503 1216H423L629 1508ZM268 593H955V595V588Q952 669 933 735T874 850T775 924T629 951Q546 951 482 923T373 845T302 731T268 593ZM1001 202L1037 106Q962 37 863 7T638 -23Q519
-23 426 16T268 126T169 294T135 508Q135 619 169 718T267 891T423 1008T633 1051Q749 1051 834 1012T975 904T1058 737T1085 523Q1085 515 1085 506T1084 491H266V472Q266 383 292 310T369 185T490 104T651 75Q763 75 852 108T1001 202Z" />
<glyph unicode="&#xea;" glyph-name="ecircumflex" horiz-adv-x="1173" d="M357 1214L566 1510H701L909 1214H830L631 1454L431 1214H357ZM268 593H955V595V588Q952 669 933 735T874 850T775 924T629 951Q546 951 482 923T373 845T302 731T268 593ZM1001 202L1037
106Q962 37 863 7T638 -23Q519 -23 426 16T268 126T169 294T135 508Q135 619 169 718T267 891T423 1008T633 1051Q749 1051 834 1012T975 904T1058 737T1085 523Q1085 515 1085 506T1084 491H266V472Q266 383 292 310T369 185T490 104T651 75Q763 75 852 108T1001
202Z" />
<glyph unicode="&#xeb;" glyph-name="edieresis" horiz-adv-x="1173" d="M502 1293H383V1421H503L502 1293ZM878 1293H755V1421H878V1293ZM268 593H955V595V588Q952 669 933 735T874 850T775 924T629 951Q546 951 482 923T373 845T302 731T268 593ZM1001 202L1037
106Q962 37 863 7T638 -23Q519 -23 426 16T268 126T169 294T135 508Q135 619 169 718T267 891T423 1008T633 1051Q749 1051 834 1012T975 904T1058 737T1085 523Q1085 515 1085 506T1084 491H266V472Q266 383 292 310T369 185T490 104T651 75Q763 75 852 108T1001
202Z" />
<glyph unicode="&#xec;" glyph-name="igrave" horiz-adv-x="503" d="M317 0H193V1026H317V0ZM217 1508H375L604 1216H522L217 1508Z" />
<glyph unicode="&#xed;" glyph-name="iacute" horiz-adv-x="503" d="M295 1508H454L169 1216H89L295 1508ZM317 0H193V1026H317V0Z" />
<glyph unicode="&#xee;" glyph-name="icircumflex" horiz-adv-x="503" d="M-41 1214L168 1510H303L511 1214H432L233 1454L33 1214H-41ZM317 0H193V1026H317V0Z" />
<glyph unicode="&#xef;" glyph-name="idieresis" horiz-adv-x="503" d="M132 1293H13V1421H133L132 1293ZM508 1293H385V1421H508V1293ZM317 0H193V1026H317V0Z" />
<glyph unicode="&#xf0;" glyph-name="eth" horiz-adv-x="1190" d="M1071 1026Q1080 990 1087 956T1100 885T1107 808T1110 721Q1110 551 1073 414T966 179T792 30T555 -23Q449 -23 364 11T218 105T125 247T92 424Q92 524 126 610T223 759T372 858T567 894Q719
894 822 829T972 638Q976 667 977 703T979 771Q979 840 969 901T941 1026H708V1128H905Q858 1237 781 1321T592 1445L651 1539Q792 1479 887 1375T1038 1128H1249V1026H1071ZM591 785Q495 785 426 756T312 677T246 562T224 425Q224 352 247 290T313 183T416 113T550
87Q649 87 722 125T844 227T917 374T941 546Q926 598 894 642T817 717T714 767T591 785Z" />
<glyph unicode="&#xf1;" glyph-name="ntilde" horiz-adv-x="1217" d="M311 0H187V788L178 1026H308L314 825Q435 1051 694 1051Q769 1051 825 1033T922 984T989 910T1029 820T1049 719T1055 614Q1056 587 1056 514T1056 333V0H932V542Q932 596 932 627T930 667Q925
808 855 879T661 951Q605 951 558 937T472 898T404 844T353 781T321 717T311 661V0ZM854 1451H916Q912 1412 899 1378T863 1318T809 1279T740 1264Q716 1264 686 1275T622 1299T551 1324T478 1335Q427 1335 397 1314T362 1247H304Q312 1329 359 1379T484 1429Q514
1429 544 1418T605 1393T671 1368T742 1357Q788 1357 818 1380T854 1451Z" />
<glyph unicode="&#xf2;" glyph-name="ograve" horiz-adv-x="1238" d="M633 1051Q761 1051 857 1010T1017 896T1114 725T1147 515Q1147 405 1113 308T1012 137T849 20T625 -23Q500 -23 404 18T243 131T144 300T110 509Q110 621 144 720T245 892T409 1008T633 1051ZM1017
511Q1017 600 994 680T922 820T801 915T626 951Q530 951 458 915T337 817T264 676T239 510Q239 424 263 345T337 206T460 111T632 75Q728 75 800 111T921 207T993 346T1017 511ZM327 1508H485L714 1216H632L327 1508Z" />
<glyph unicode="&#xf3;" glyph-name="oacute" horiz-adv-x="1238" d="M661 1508H820L535 1216H455L661 1508ZM633 1051Q761 1051 857 1010T1017 896T1114 725T1147 515Q1147 405 1113 308T1012 137T849 20T625 -23Q500 -23 404 18T243 131T144 300T110 509Q110
621 144 720T245 892T409 1008T633 1051ZM1017 511Q1017 600 994 680T922 820T801 915T626 951Q530 951 458 915T337 817T264 676T239 510Q239 424 263 345T337 206T460 111T632 75Q728 75 800 111T921 207T993 346T1017 511Z" />
<glyph unicode="&#xf4;" glyph-name="ocircumflex" horiz-adv-x="1238" d="M325 1214L534 1510H669L877 1214H798L599 1454L399 1214H325ZM633 1051Q761 1051 857 1010T1017 896T1114 725T1147 515Q1147 405 1113 308T1012 137T849 20T625 -23Q500 -23 404 18T243
131T144 300T110 509Q110 621 144 720T245 892T409 1008T633 1051ZM1017 511Q1017 600 994 680T922 820T801 915T626 951Q530 951 458 915T337 817T264 676T239 510Q239 424 263 345T337 206T460 111T632 75Q728 75 800 111T921 207T993 346T1017 511Z" />
<glyph unicode="&#xf5;" glyph-name="otilde" horiz-adv-x="1238" d="M633 1051Q761 1051 857 1010T1017 896T1114 725T1147 515Q1147 405 1113 308T1012 137T849 20T625 -23Q500 -23 404 18T243 131T144 300T110 509Q110 621 144 720T245 892T409 1008T633 1051ZM1017
511Q1017 600 994 680T922 820T801 915T626 951Q530 951 458 915T337 817T264 676T239 510Q239 424 263 345T337 206T460 111T632 75Q728 75 800 111T921 207T993 346T1017 511ZM864 1451H926Q922 1412 909 1378T873 1318T819 1279T750 1264Q726 1264 696 1275T632
1299T561 1324T488 1335Q437 1335 407 1314T372 1247H314Q322 1329 369 1379T494 1429Q524 1429 554 1418T615 1393T681 1368T752 1357Q798 1357 828 1380T864 1451Z" />
<glyph unicode="&#xf6;" glyph-name="odieresis" horiz-adv-x="1238" d="M498 1293H379V1421H499L498 1293ZM874 1293H751V1421H874V1293ZM633 1051Q761 1051 857 1010T1017 896T1114 725T1147 515Q1147 405 1113 308T1012 137T849 20T625 -23Q500 -23 404 18T243
131T144 300T110 509Q110 621 144 720T245 892T409 1008T633 1051ZM1017 511Q1017 600 994 680T922 820T801 915T626 951Q530 951 458 915T337 817T264 676T239 510Q239 424 263 345T337 206T460 111T632 75Q728 75 800 111T921 207T993 346T1017 511Z" />
<glyph unicode="&#xf7;" glyph-name="divide" horiz-adv-x="1458" d="M218 504V608H1256V504H218ZM829 58H657V237H830L829 58ZM834 875H661V1054H834V875Z" />
<glyph unicode="&#xf8;" glyph-name="oslash" horiz-adv-x="1238" d="M310 -175L387 27Q319 58 268 107T181 218T128 354T110 509Q110 621 144 720T245 892T409 1008T633 1051Q708 1051 773 1036L832 1189H953L879 998Q946 965 996 915T1080 803T1130 668T1147
515Q1147 405 1113 308T1012 137T849 20T625 -23Q590 -23 557 -20T490 -9L426 -175H310ZM626 951Q530 951 458 915T337 817T264 676T239 510Q239 451 250 396T285 291T343 201T426 130L735 938Q687 951 626 951ZM1017 511Q1017 632 974 732T838 893L526 87Q575
75 632 75Q728 75 800 111T921 207T993 346T1017 511Z" />
<glyph unicode="&#xf9;" glyph-name="ugrave" horiz-adv-x="1217" d="M925 1026H1049V237Q1049 221 1050 162T1054 0H925V203Q869 85 775 31T546 -23Q435 -23 364 15T251 113T193 247T177 396V1026H301V405Q304 324 317 263T364 160T454 97T589 75Q670 75 732
101T837 174T902 284T925 421V433V1026ZM317 1508H475L704 1216H622L317 1508Z" />
<glyph unicode="&#xfa;" glyph-name="uacute" horiz-adv-x="1217" d="M651 1508H810L525 1216H445L651 1508ZM925 1026H1049V237Q1049 221 1050 162T1054 0H925V203Q869 85 775 31T546 -23Q435 -23 364 15T251 113T193 247T177 396V1026H301V405Q304 324 317 263T364
160T454 97T589 75Q670 75 732 101T837 174T902 284T925 421V433V1026Z" />
<glyph unicode="&#xfb;" glyph-name="ucircumflex" horiz-adv-x="1217" d="M314 1214L523 1510H658L866 1214H787L588 1454L388 1214H314ZM925 1026H1049V237Q1049 221 1050 162T1054 0H925V203Q869 85 775 31T546 -23Q435 -23 364 15T251 113T193 247T177 396V1026H301V405Q304
324 317 263T364 160T454 97T589 75Q670 75 732 101T837 174T902 284T925 421V433V1026Z" />
<glyph unicode="&#xfc;" glyph-name="udieresis" horiz-adv-x="1217" d="M487 1293H368V1421H488L487 1293ZM863 1293H740V1421H863V1293ZM925 1026H1049V237Q1049 221 1050 162T1054 0H925V203Q869 85 775 31T546 -23Q435 -23 364 15T251 113T193 247T177 396V1026H301V405Q304
324 317 263T364 160T454 97T589 75Q670 75 732 101T837 174T902 284T925 421V433V1026Z" />
<glyph unicode="&#xfd;" glyph-name="yacute" horiz-adv-x="1069" d="M46 1026H177L540 90L916 1026H1044L581 -84Q553 -151 516 -210T433 -316T330 -395T208 -439L141 -358Q222 -337 275 -304T362 -232T416 -151T452 -71L477 -10L46 1026ZM572 1508H731L446 1216H366L572
1508Z" />
<glyph unicode="&#xfe;" glyph-name="thorn" horiz-adv-x="1239" d="M301 -443H180V1083L162 1342H298L301 818Q362 941 467 996T706 1051Q818 1051 900 1010T1037 897T1119 731T1146 529Q1146 420 1117 320T1030 144T885 23T680 -23Q431 -23 299 194L301 -443ZM299
494Q299 404 323 328T393 195T506 107T660 75Q753 75 820 111T930 209T993 351T1014 521Q1014 604 996 681T937 819T828 915T664 951Q561 951 491 913T379 812T318 667T299 494Z" />
<glyph unicode="&#xff;" glyph-name="ydieresis" horiz-adv-x="1069" d="M46 1026H177L540 90L916 1026H1044L581 -84Q553 -151 516 -210T433 -316T330 -395T208 -439L141 -358Q222 -337 275 -304T362 -232T416 -151T452 -71L477 -10L46 1026ZM413 1293H294V1421H414L413
1293ZM789 1293H666V1421H789V1293Z" />
</font>
</defs>
</svg>
